<?xml version="1.0" encoding="utf-8"?>
<!-- Generator: Adobe Illustrator 18.1.0, SVG Export Plug-In . SVG Version: 6.00 Build 0)  -->
<!DOCTYPE svg PUBLIC "-//W3C//DTD SVG 1.1//EN" "http://www.w3.org/Graphics/SVG/1.1/DTD/svg11.dtd">
<svg version="1.1" xmlns="http://www.w3.org/2000/svg" xmlns:xlink="http://www.w3.org/1999/xlink" x="0px" y="0px"
	 viewBox="0 0 60 60" enable-background="new 0 0 60 60" xml:space="preserve">
<g id="Background">
</g>
<g id="Artwork">
	<g>
		<g>
			<path fill="#999999" d="M53,49.7L37.9,34.6c2.2-3.1,3.5-6.8,3.5-10.9c0-10.4-8.4-18.8-18.8-18.8S3.8,13.4,3.8,23.7
				c0,10.4,8.4,18.8,18.8,18.8c4.1,0,7.8-1.3,10.9-3.5l15.1,15.1c1.2,1.2,3.2,1.2,4.4,0C54.2,52.9,54.2,50.9,53,49.7z M33.3,30.1
				c-1.1,1.8-2.6,3.3-4.4,4.4c-1.9,1.1-4,1.8-6.3,1.8c-6.9,0-12.5-5.6-12.5-12.5s5.6-12.5,12.5-12.5s12.5,5.6,12.5,12.5
				C35.1,26.1,34.4,28.2,33.3,30.1z"/>
		</g>
	</g>
</g>
</svg>
